<mxfile host="65bd71144e">
    <diagram id="xkvIu5SNBo9WBoO5ajSb" name="PÃ¡gina-1">
        <mxGraphModel dx="824" dy="664" grid="1" gridSize="10" guides="1" tooltips="1" connect="1" arrows="1" fold="1" page="1" pageScale="1" pageWidth="1169" pageHeight="1654" background="#ffffff" math="0" shadow="0">
            <root>
                <mxCell id="0"/>
                <mxCell id="1" parent="0"/>
                <mxCell id="8" value="&lt;table border=&quot;1&quot; width=&quot;100%&quot; height=&quot;100%&quot; cellpadding=&quot;4&quot; style=&quot;width: 100%; height: 100%; border-collapse: collapse; font-size: 9px;&quot;&gt;&lt;tbody&gt;&lt;tr&gt;&lt;th align=&quot;center&quot;&gt;&lt;font style=&quot;font-size: 9px;&quot;&gt;&lt;i&gt;Torneo&lt;/i&gt;&lt;/font&gt;&lt;/th&gt;&lt;/tr&gt;&lt;tr&gt;&lt;td&gt;&lt;ul&gt;&lt;li&gt;&lt;font style=&quot;font-size: 9px;&quot;&gt;Arena; object&lt;/font&gt;&lt;/li&gt;&lt;li&gt;&lt;font style=&quot;font-size: 9px;&quot;&gt;Equipo; list&lt;/font&gt;&lt;/li&gt;&lt;li&gt;&lt;font style=&quot;font-size: 9px;&quot;&gt;Mochila;&amp;nbsp; list&amp;nbsp;&lt;/font&gt;&lt;/li&gt;&lt;li&gt;&lt;font style=&quot;font-size: 9px;&quot;&gt;Metros cavados; float (property)&lt;/font&gt;&lt;/li&gt;&lt;li&gt;&lt;font style=&quot;font-size: 9px;&quot;&gt;Meta; float&lt;/font&gt;&lt;/li&gt;&lt;li&gt;&lt;font style=&quot;font-size: 9px;&quot;&gt;Dias Transcurridos; int&lt;/font&gt;&lt;/li&gt;&lt;li&gt;&lt;font style=&quot;font-size: 9px;&quot;&gt;Dias totales; int&lt;/font&gt;&lt;/li&gt;&lt;li&gt;Arenas disponibles; list&lt;/li&gt;&lt;li&gt;Excavadores disponibles; list&lt;/li&gt;&lt;/ul&gt;&lt;/td&gt;&lt;/tr&gt;&lt;tr&gt;&lt;td&gt;&lt;ul&gt;&lt;li&gt;&lt;font style=&quot;font-size: 9px;&quot;&gt;Simular_dia(); None&lt;/font&gt;&lt;/li&gt;&lt;li&gt;&lt;font style=&quot;font-size: 9px;&quot;&gt;Mostrar_estado(): None&lt;/font&gt;&lt;/li&gt;&lt;li&gt;&lt;font style=&quot;font-size: 9px;&quot;&gt;Ver_mochila(); None&lt;/font&gt;&lt;/li&gt;&lt;li&gt;&lt;font style=&quot;font-size: 9px;&quot;&gt;Usar_consumible(); None&lt;/font&gt;&lt;/li&gt;&lt;li&gt;&lt;font style=&quot;font-size: 9px;&quot;&gt;Abrir_tesoro(); None&lt;/font&gt;&lt;/li&gt;&lt;li&gt;&lt;font style=&quot;font-size: 9px;&quot;&gt;Iniciar_evento(); None&lt;/font&gt;&lt;/li&gt;&lt;/ul&gt;&lt;/td&gt;&lt;/tr&gt;&lt;/tbody&gt;&lt;/table&gt;" style="text;html=1;whiteSpace=wrap;strokeColor=none;fillColor=default;overflow=fill;rounded=0;" parent="1" vertex="1">
                    <mxGeometry x="110" y="40" width="250" height="350" as="geometry"/>
                </mxCell>
                <mxCell id="13" value="&lt;table border=&quot;1&quot; width=&quot;100%&quot; height=&quot;100%&quot; cellpadding=&quot;4&quot; style=&quot;width: 100%; height: 100%; border-collapse: collapse; font-size: 9px;&quot;&gt;&lt;tbody&gt;&lt;tr&gt;&lt;th align=&quot;center&quot;&gt;&lt;i&gt;Arena (Abstract class)&lt;/i&gt;&lt;/th&gt;&lt;/tr&gt;&lt;tr&gt;&lt;td&gt;&lt;ul&gt;&lt;li&gt;Nombre; str&lt;/li&gt;&lt;li&gt;Tipo; str&lt;/li&gt;&lt;li&gt;Rareza; int (property)&lt;/li&gt;&lt;li&gt;Humedad; int (property)&lt;/li&gt;&lt;li&gt;Dureza; int (property)&lt;/li&gt;&lt;li&gt;Estatica; int (property)&lt;/li&gt;&lt;li&gt;Items; list&lt;/li&gt;&lt;/ul&gt;&lt;/td&gt;&lt;/tr&gt;&lt;tr&gt;&lt;td&gt;&lt;ul&gt;&lt;li&gt;Dificultad_de_la_arena(); float (abstractmethod)&lt;/li&gt;&lt;/ul&gt;&lt;/td&gt;&lt;/tr&gt;&lt;/tbody&gt;&lt;/table&gt;" style="text;html=1;whiteSpace=wrap;strokeColor=none;fillColor=default;overflow=fill;rounded=0;" parent="1" vertex="1">
                    <mxGeometry x="110" y="470" width="250" height="210" as="geometry"/>
                </mxCell>
                <mxCell id="14" value="&lt;table border=&quot;1&quot; width=&quot;100%&quot; height=&quot;100%&quot; cellpadding=&quot;4&quot; style=&quot;width: 100%; height: 100%; border-collapse: collapse; font-size: 9px;&quot;&gt;&lt;tbody&gt;&lt;tr&gt;&lt;th align=&quot;center&quot;&gt;&lt;i&gt;Arena normal (Arena)&amp;nbsp;&lt;/i&gt;&lt;/th&gt;&lt;/tr&gt;&lt;tr&gt;&lt;td&gt;&lt;ul&gt;&lt;li&gt;Dificultad_de_la_arena(); float&lt;/li&gt;&lt;/ul&gt;&lt;/td&gt;&lt;/tr&gt;&lt;/tbody&gt;&lt;/table&gt;" style="text;html=1;whiteSpace=wrap;strokeColor=none;fillColor=default;overflow=fill;rounded=0;" parent="1" vertex="1">
                    <mxGeometry x="510" y="400" width="250" height="110" as="geometry"/>
                </mxCell>
                <mxCell id="15" value="&lt;table border=&quot;1&quot; width=&quot;100%&quot; height=&quot;100%&quot; cellpadding=&quot;4&quot; style=&quot;width: 100%; height: 100%; border-collapse: collapse; font-size: 9px;&quot;&gt;&lt;tbody&gt;&lt;tr&gt;&lt;th align=&quot;center&quot;&gt;&lt;i&gt;Arena mojada (Arena)&lt;/i&gt;&lt;/th&gt;&lt;/tr&gt;&lt;tr&gt;&lt;td&gt;&lt;ul&gt;&lt;li&gt;Dificultad_de_la_arena(); float&lt;/li&gt;&lt;/ul&gt;&lt;/td&gt;&lt;/tr&gt;&lt;/tbody&gt;&lt;/table&gt;" style="text;html=1;whiteSpace=wrap;strokeColor=none;fillColor=default;overflow=fill;rounded=0;" parent="1" vertex="1">
                    <mxGeometry x="510" y="630" width="250" height="70" as="geometry"/>
                </mxCell>
                <mxCell id="18" value="&lt;table border=&quot;1&quot; width=&quot;100%&quot; height=&quot;100%&quot; cellpadding=&quot;4&quot; style=&quot;width: 100%; height: 100%; border-collapse: collapse; font-size: 9px;&quot;&gt;&lt;tbody&gt;&lt;tr&gt;&lt;th align=&quot;center&quot;&gt;&lt;i&gt;Arena rocosa (Arena)&lt;/i&gt;&lt;/th&gt;&lt;/tr&gt;&lt;tr&gt;&lt;td&gt;&lt;ul&gt;&lt;li&gt;Dificultad_de_la_arena(); float&lt;/li&gt;&lt;/ul&gt;&lt;/td&gt;&lt;/tr&gt;&lt;/tbody&gt;&lt;/table&gt;" style="text;html=1;whiteSpace=wrap;strokeColor=none;fillColor=default;overflow=fill;rounded=0;" parent="1" vertex="1">
                    <mxGeometry x="510" y="530" width="250" height="70" as="geometry"/>
                </mxCell>
                <mxCell id="19" value="&lt;table border=&quot;1&quot; width=&quot;100%&quot; height=&quot;100%&quot; cellpadding=&quot;4&quot; style=&quot;width: 100%; height: 100%; border-collapse: collapse; font-size: 9px;&quot;&gt;&lt;tbody&gt;&lt;tr&gt;&lt;th align=&quot;center&quot;&gt;&lt;i&gt;Arena magnetica (Arena mojada, Arena rocosa)&lt;/i&gt;&lt;/th&gt;&lt;/tr&gt;&lt;tr&gt;&lt;td&gt;&lt;ul&gt;&lt;li&gt;Humedad; int&lt;/li&gt;&lt;li&gt;Dureaza; int&lt;/li&gt;&lt;/ul&gt;&lt;div&gt;&lt;table style=&quot;width: 250px; height: 70px; border-collapse: collapse;&quot; border=&quot;1&quot; width=&quot;100%&quot; height=&quot;100%&quot; cellpadding=&quot;4&quot;&gt;&lt;tbody&gt;&lt;tr&gt;&lt;th align=&quot;center&quot;&gt;&lt;ul style=&quot;font-weight: 400; text-align: left;&quot;&gt;&lt;li&gt;Dificultad_de_la_arena(); float&lt;/li&gt;&lt;/ul&gt;&lt;/th&gt;&lt;/tr&gt;&lt;/tbody&gt;&lt;/table&gt;&lt;/div&gt;&lt;/td&gt;&lt;/tr&gt;&lt;/tbody&gt;&lt;/table&gt;" style="text;html=1;whiteSpace=wrap;strokeColor=default;fillColor=default;overflow=fill;rounded=0;" parent="1" vertex="1">
                    <mxGeometry x="880" y="470" width="250" height="170" as="geometry"/>
                </mxCell>
                <mxCell id="22" value="&lt;table border=&quot;1&quot; width=&quot;100%&quot; height=&quot;100%&quot; cellpadding=&quot;4&quot; style=&quot;width: 100%; height: 100%; border-collapse: collapse; font-size: 9px;&quot;&gt;&lt;tbody&gt;&lt;tr&gt;&lt;th align=&quot;center&quot;&gt;&lt;i&gt;Excavador (Abstract class)&lt;/i&gt;&lt;/th&gt;&lt;/tr&gt;&lt;tr&gt;&lt;td&gt;&lt;ul&gt;&lt;li&gt;Nombre; str&lt;/li&gt;&lt;li&gt;Tipo; str&lt;/li&gt;&lt;/ul&gt;&lt;/td&gt;&lt;/tr&gt;&lt;tr&gt;&lt;td&gt;&lt;ul&gt;&lt;li&gt;Cavar(); float (abstractmethod)&lt;/li&gt;&lt;li&gt;Descansar(); int (abstractmethod)&lt;/li&gt;&lt;li&gt;Encontrar_item(); object or None (abstractmethod)&lt;/li&gt;&lt;li&gt;Gastar_energia(); None (abstractmethod)&lt;/li&gt;&lt;li&gt;Consumir(); None (abstractmethod)&lt;/li&gt;&lt;/ul&gt;&lt;/td&gt;&lt;/tr&gt;&lt;/tbody&gt;&lt;/table&gt;" style="text;html=1;whiteSpace=wrap;strokeColor=none;fillColor=default;overflow=fill;rounded=0;" parent="1" vertex="1">
                    <mxGeometry x="110" y="820" width="250" height="260" as="geometry"/>
                </mxCell>
                <mxCell id="23" value="&lt;table border=&quot;1&quot; width=&quot;100%&quot; height=&quot;100%&quot; cellpadding=&quot;4&quot; style=&quot;width: 100%; height: 100%; border-collapse: collapse; font-size: 9px;&quot;&gt;&lt;tbody&gt;&lt;tr&gt;&lt;th align=&quot;center&quot;&gt;&lt;i&gt;ExcavadorDocencio (Excavador)&lt;/i&gt;&lt;/th&gt;&lt;/tr&gt;&lt;tr&gt;&lt;td&gt;&lt;div&gt;&lt;ul&gt;&lt;li&gt;Edad; int (property)&lt;/li&gt;&lt;li&gt;Energia; int (property)&lt;/li&gt;&lt;li&gt;Fuerza; int (property)&lt;/li&gt;&lt;li&gt;Suerte; int (property)&lt;/li&gt;&lt;li&gt;Felicidad; int (property)&lt;/li&gt;&lt;li&gt;Dias descanso; int (property)&lt;/li&gt;&lt;/ul&gt;&lt;/div&gt;&lt;/td&gt;&lt;/tr&gt;&lt;tr&gt;&lt;td&gt;&lt;div&gt;&lt;br&gt;&lt;/div&gt;&lt;ul&gt;&lt;li&gt;Cavar(); float&lt;/li&gt;&lt;li&gt;Descansar(); int&amp;nbsp;&lt;/li&gt;&lt;li&gt;Encontrar_item(); object or None&lt;/li&gt;&lt;li&gt;Gastar_energia(); None&lt;/li&gt;&lt;li&gt;Consumir(); None&lt;/li&gt;&lt;/ul&gt;&lt;/td&gt;&lt;/tr&gt;&lt;/tbody&gt;&lt;/table&gt;" style="text;html=1;whiteSpace=wrap;strokeColor=none;fillColor=default;overflow=fill;rounded=0;" parent="1" vertex="1">
                    <mxGeometry x="800" y="700" width="250" height="280" as="geometry"/>
                </mxCell>
                <mxCell id="26" value="&lt;table border=&quot;1&quot; width=&quot;100%&quot; height=&quot;100%&quot; cellpadding=&quot;4&quot; style=&quot;width: 100%; height: 100%; border-collapse: collapse; font-size: 9px;&quot;&gt;&lt;tbody&gt;&lt;tr&gt;&lt;th align=&quot;center&quot;&gt;&lt;i&gt;Item (Abstract class)&lt;/i&gt;&lt;/th&gt;&lt;/tr&gt;&lt;tr&gt;&lt;td&gt;&lt;ul&gt;&lt;li&gt;Nombre; str&lt;/li&gt;&lt;li&gt;Tipo; str&lt;/li&gt;&lt;li&gt;Descripcion; str&lt;/li&gt;&lt;/ul&gt;&lt;/td&gt;&lt;/tr&gt;&lt;/tbody&gt;&lt;/table&gt;" style="text;html=1;whiteSpace=wrap;strokeColor=none;fillColor=default;overflow=fill;rounded=0;" parent="1" vertex="1">
                    <mxGeometry x="110" y="1340" width="250" height="100" as="geometry"/>
                </mxCell>
                <mxCell id="28" value="&lt;table border=&quot;1&quot; width=&quot;100%&quot; height=&quot;100%&quot; cellpadding=&quot;4&quot; style=&quot;width: 100%; height: 100%; border-collapse: collapse; font-size: 9px;&quot;&gt;&lt;tbody&gt;&lt;tr&gt;&lt;th align=&quot;center&quot;&gt;Tesoro (Item)&lt;/th&gt;&lt;/tr&gt;&lt;tr&gt;&lt;td&gt;&lt;div&gt;&lt;br&gt;&lt;/div&gt;&lt;ul&gt;&lt;li&gt;Calidad; int&lt;/li&gt;&lt;li&gt;Cambio; str&lt;/li&gt;&lt;/ul&gt;&lt;/td&gt;&lt;/tr&gt;&lt;/tbody&gt;&lt;/table&gt;" style="text;html=1;whiteSpace=wrap;strokeColor=none;fillColor=default;overflow=fill;rounded=0;" parent="1" vertex="1">
                    <mxGeometry x="510" y="1280" width="250" height="110" as="geometry"/>
                </mxCell>
                <mxCell id="29" value="&lt;table border=&quot;1&quot; width=&quot;100%&quot; height=&quot;100%&quot; cellpadding=&quot;4&quot; style=&quot;width: 100%; height: 100%; border-collapse: collapse; font-size: 9px;&quot;&gt;&lt;tbody&gt;&lt;tr&gt;&lt;th align=&quot;center&quot;&gt;Consumible (Item)&lt;/th&gt;&lt;/tr&gt;&lt;tr&gt;&lt;td&gt;&lt;div&gt;&lt;br&gt;&lt;/div&gt;&lt;ul&gt;&lt;li&gt;Energia; int&lt;/li&gt;&lt;li&gt;Fuerza; int&lt;/li&gt;&lt;li&gt;Suerte; int&lt;/li&gt;&lt;li&gt;Felicidad; int&lt;/li&gt;&lt;/ul&gt;&lt;/td&gt;&lt;/tr&gt;&lt;/tbody&gt;&lt;/table&gt;" style="text;html=1;whiteSpace=wrap;strokeColor=none;fillColor=default;overflow=fill;rounded=0;" parent="1" vertex="1">
                    <mxGeometry x="510" y="1470" width="250" height="130" as="geometry"/>
                </mxCell>
                <mxCell id="39" style="edgeStyle=none;html=1;endArrow=block;endFill=0;strokeColor=#000000;strokeWidth=4;endSize=22;entryX=1;entryY=0.5;entryDx=0;entryDy=0;exitX=0;exitY=0.5;exitDx=0;exitDy=0;" parent="1" edge="1">
                    <mxGeometry relative="1" as="geometry">
                        <mxPoint x="510" y="1005" as="sourcePoint"/>
                        <mxPoint x="360" y="964.9999999999998" as="targetPoint"/>
                        <Array as="points">
                            <mxPoint x="440" y="1005"/>
                            <mxPoint x="440" y="965"/>
                        </Array>
                    </mxGeometry>
                </mxCell>
                <mxCell id="40" value="" style="endArrow=none;html=1;strokeColor=#000000;strokeWidth=4;startSize=12;endSize=17;targetPerimeterSpacing=13;entryX=0;entryY=0.5;entryDx=0;entryDy=0;" parent="1" target="23" edge="1">
                    <mxGeometry width="50" height="50" relative="1" as="geometry">
                        <mxPoint x="440" y="980" as="sourcePoint"/>
                        <mxPoint x="560" y="840" as="targetPoint"/>
                        <Array as="points">
                            <mxPoint x="440" y="840"/>
                        </Array>
                    </mxGeometry>
                </mxCell>
                <mxCell id="41" style="edgeStyle=none;html=1;strokeColor=#000000;strokeWidth=4;endArrow=open;endFill=0;startSize=12;endSize=17;startArrow=diamond;startFill=1;targetPerimeterSpacing=13;exitX=0.5;exitY=1;exitDx=0;exitDy=0;entryX=0;entryY=0.5;entryDx=0;entryDy=0;" parent="1" source="8" target="13" edge="1">
                    <mxGeometry relative="1" as="geometry">
                        <mxPoint x="165" y="430" as="sourcePoint"/>
                        <mxPoint x="30" y="740" as="targetPoint"/>
                        <Array as="points">
                            <mxPoint x="235" y="440"/>
                            <mxPoint x="40" y="440"/>
                            <mxPoint x="40" y="575"/>
                        </Array>
                    </mxGeometry>
                </mxCell>
                <mxCell id="42" style="edgeStyle=none;html=1;endArrow=block;endFill=0;strokeColor=#000000;strokeWidth=4;endSize=22;entryX=1;entryY=0.5;entryDx=0;entryDy=0;exitX=0;exitY=0.5;exitDx=0;exitDy=0;" parent="1" edge="1">
                    <mxGeometry relative="1" as="geometry">
                        <mxPoint x="510" y="670" as="sourcePoint"/>
                        <mxPoint x="360" y="569.9999999999998" as="targetPoint"/>
                        <Array as="points">
                            <mxPoint x="440" y="670"/>
                            <mxPoint x="440" y="570"/>
                        </Array>
                    </mxGeometry>
                </mxCell>
                <mxCell id="43" value="" style="endArrow=none;html=1;strokeColor=#000000;strokeWidth=4;startSize=12;endSize=17;targetPerimeterSpacing=13;entryX=0;entryY=0.5;entryDx=0;entryDy=0;" parent="1" edge="1">
                    <mxGeometry width="50" height="50" relative="1" as="geometry">
                        <mxPoint x="440" y="585" as="sourcePoint"/>
                        <mxPoint x="510" y="450" as="targetPoint"/>
                        <Array as="points">
                            <mxPoint x="440" y="450"/>
                        </Array>
                    </mxGeometry>
                </mxCell>
                <mxCell id="44" value="" style="endArrow=none;html=1;strokeColor=#000000;strokeWidth=4;startSize=12;endSize=17;targetPerimeterSpacing=13;entryX=0;entryY=0.5;entryDx=0;entryDy=0;" parent="1" target="18" edge="1">
                    <mxGeometry width="50" height="50" relative="1" as="geometry">
                        <mxPoint x="440" y="565" as="sourcePoint"/>
                        <mxPoint x="520" y="460" as="targetPoint"/>
                        <Array as="points"/>
                    </mxGeometry>
                </mxCell>
                <mxCell id="45" style="edgeStyle=none;html=1;endArrow=block;endFill=0;strokeColor=#000000;strokeWidth=4;endSize=22;entryX=1;entryY=0.5;entryDx=0;entryDy=0;exitX=0;exitY=0.5;exitDx=0;exitDy=0;" parent="1" source="19" edge="1">
                    <mxGeometry relative="1" as="geometry">
                        <mxPoint x="910" y="670" as="sourcePoint"/>
                        <mxPoint x="760" y="569.9999999999998" as="targetPoint"/>
                        <Array as="points">
                            <mxPoint x="840" y="570"/>
                        </Array>
                    </mxGeometry>
                </mxCell>
                <mxCell id="46" style="edgeStyle=none;html=1;endArrow=block;endFill=0;strokeColor=#000000;strokeWidth=4;endSize=22;entryX=1;entryY=0.5;entryDx=0;entryDy=0;exitX=0;exitY=0.5;exitDx=0;exitDy=0;" parent="1" source="19" edge="1">
                    <mxGeometry relative="1" as="geometry">
                        <mxPoint x="880" y="700" as="sourcePoint"/>
                        <mxPoint x="760" y="664.9999999999998" as="targetPoint"/>
                        <Array as="points">
                            <mxPoint x="840" y="570"/>
                            <mxPoint x="840" y="665"/>
                        </Array>
                    </mxGeometry>
                </mxCell>
                <mxCell id="47" value="" style="endArrow=open;html=1;strokeColor=#000000;strokeWidth=4;startSize=12;endSize=17;targetPerimeterSpacing=13;entryX=0;entryY=0.5;entryDx=0;entryDy=0;endFill=0;" parent="1" target="22" edge="1">
                    <mxGeometry width="50" height="50" relative="1" as="geometry">
                        <mxPoint x="40" y="560" as="sourcePoint"/>
                        <mxPoint x="110" y="730" as="targetPoint"/>
                        <Array as="points">
                            <mxPoint x="40" y="950"/>
                        </Array>
                    </mxGeometry>
                </mxCell>
                <mxCell id="48" value="" style="endArrow=open;html=1;strokeColor=#000000;strokeWidth=4;startSize=12;endSize=17;targetPerimeterSpacing=13;entryX=0;entryY=0.5;entryDx=0;entryDy=0;endFill=0;" parent="1" edge="1">
                    <mxGeometry width="50" height="50" relative="1" as="geometry">
                        <mxPoint x="40" y="900" as="sourcePoint"/>
                        <mxPoint x="110" y="1400" as="targetPoint"/>
                        <Array as="points">
                            <mxPoint x="40" y="1400"/>
                        </Array>
                    </mxGeometry>
                </mxCell>
                <mxCell id="49" style="edgeStyle=none;html=1;endArrow=block;endFill=0;strokeColor=#000000;strokeWidth=4;endSize=22;entryX=1;entryY=0.5;entryDx=0;entryDy=0;exitX=0;exitY=0.5;exitDx=0;exitDy=0;" parent="1" edge="1">
                    <mxGeometry relative="1" as="geometry">
                        <mxPoint x="510" y="1500" as="sourcePoint"/>
                        <mxPoint x="360" y="1399.9999999999998" as="targetPoint"/>
                        <Array as="points">
                            <mxPoint x="440" y="1500"/>
                            <mxPoint x="440" y="1400"/>
                        </Array>
                    </mxGeometry>
                </mxCell>
                <mxCell id="50" value="" style="endArrow=none;html=1;strokeColor=#000000;strokeWidth=4;startSize=12;endSize=17;targetPerimeterSpacing=13;entryX=0;entryY=0.5;entryDx=0;entryDy=0;" parent="1" edge="1">
                    <mxGeometry width="50" height="50" relative="1" as="geometry">
                        <mxPoint x="440" y="1455" as="sourcePoint"/>
                        <mxPoint x="510" y="1320" as="targetPoint"/>
                        <Array as="points">
                            <mxPoint x="440" y="1320"/>
                        </Array>
                    </mxGeometry>
                </mxCell>
                <mxCell id="51" value="" style="endArrow=none;html=1;strokeColor=#000000;strokeWidth=4;startSize=12;endSize=17;targetPerimeterSpacing=13;entryX=0.007;entryY=0.61;entryDx=0;entryDy=0;entryPerimeter=0;" parent="1" target="53" edge="1">
                    <mxGeometry width="50" height="50" relative="1" as="geometry">
                        <mxPoint x="440" y="980" as="sourcePoint"/>
                        <mxPoint x="510" y="1170" as="targetPoint"/>
                        <Array as="points">
                            <mxPoint x="440" y="1170"/>
                        </Array>
                    </mxGeometry>
                </mxCell>
                <mxCell id="52" value="&lt;table border=&quot;1&quot; width=&quot;100%&quot; height=&quot;100%&quot; cellpadding=&quot;4&quot; style=&quot;width: 100%; height: 100%; border-collapse: collapse; font-size: 9px;&quot;&gt;&lt;tbody&gt;&lt;tr&gt;&lt;th align=&quot;center&quot;&gt;&lt;i&gt;ExcavadorTareo (Excavador)&lt;/i&gt;&lt;/th&gt;&lt;/tr&gt;&lt;tr&gt;&lt;td&gt;&lt;div&gt;&lt;ul&gt;&lt;li&gt;Edad; int (property)&lt;/li&gt;&lt;li&gt;Energia; int (property)&lt;/li&gt;&lt;li&gt;Fuerza; int (property)&lt;/li&gt;&lt;li&gt;Suerte; int (property)&lt;/li&gt;&lt;li&gt;Felicidad; int (property)&lt;/li&gt;&lt;li&gt;Dias descanso; int (property)&lt;/li&gt;&lt;/ul&gt;&lt;/div&gt;&lt;/td&gt;&lt;/tr&gt;&lt;tr&gt;&lt;td&gt;&lt;div&gt;&lt;br&gt;&lt;/div&gt;&lt;ul&gt;&lt;li&gt;Cavar(); float&lt;/li&gt;&lt;li&gt;Descansar(); int&lt;/li&gt;&lt;li&gt;Encontrar_item(); object or None&lt;/li&gt;&lt;li&gt;Gastar_energia(); None&lt;/li&gt;&lt;li&gt;Consumir(); None&lt;/li&gt;&lt;/ul&gt;&lt;/td&gt;&lt;/tr&gt;&lt;/tbody&gt;&lt;/table&gt;" style="text;html=1;whiteSpace=wrap;strokeColor=none;fillColor=default;overflow=fill;rounded=0;" parent="1" vertex="1">
                    <mxGeometry x="510" y="860" width="250" height="290" as="geometry"/>
                </mxCell>
                <mxCell id="53" value="&lt;table border=&quot;1&quot; width=&quot;100%&quot; height=&quot;100%&quot; cellpadding=&quot;4&quot; style=&quot;width: 100%; height: 100%; border-collapse: collapse; font-size: 9px;&quot;&gt;&lt;tbody&gt;&lt;tr&gt;&lt;th align=&quot;center&quot;&gt;&lt;i&gt;ExcavadorHibrido(Excavador)&lt;/i&gt;&lt;/th&gt;&lt;/tr&gt;&lt;tr&gt;&lt;td&gt;&lt;div&gt;&lt;ul&gt;&lt;li&gt;Edad; int (property)&lt;/li&gt;&lt;li&gt;Energia; int (property)&lt;/li&gt;&lt;li&gt;Fuerza; int (property)&lt;/li&gt;&lt;li&gt;Suerte; int (property)&lt;/li&gt;&lt;li&gt;Felicidad; int (property)&lt;/li&gt;&lt;li&gt;Dias descanso; int (property)&lt;/li&gt;&lt;/ul&gt;&lt;/div&gt;&lt;/td&gt;&lt;/tr&gt;&lt;tr&gt;&lt;td&gt;&lt;div&gt;&lt;br&gt;&lt;/div&gt;&lt;ul&gt;&lt;li&gt;Cavar(); float&lt;/li&gt;&lt;li&gt;Descansar(); int&lt;/li&gt;&lt;li&gt;Encontrar_item(); object or None&lt;/li&gt;&lt;li&gt;Gastar_energia(); None&lt;/li&gt;&lt;li&gt;Consumir(); None&lt;/li&gt;&lt;/ul&gt;&lt;/td&gt;&lt;/tr&gt;&lt;/tbody&gt;&lt;/table&gt;" style="text;html=1;whiteSpace=wrap;strokeColor=none;fillColor=default;overflow=fill;rounded=0;" parent="1" vertex="1">
                    <mxGeometry x="800" y="1000" width="250" height="280" as="geometry"/>
                </mxCell>
            </root>
        </mxGraphModel>
    </diagram>
</mxfile>